<?xml version="1.0" encoding="UTF-8"?>
<svg version="1.1" xmlns="http://www.w3.org/2000/svg" width="512" height="512">
<path d="M0 0 C168.96 0 337.92 0 512 0 C512 168.96 512 337.92 512 512 C343.04 512 174.08 512 0 512 C0 343.04 0 174.08 0 0 Z " fill="#141314" transform="translate(0,0)"/>
<path d="M0 0 C2.49507141 0.10020447 2.49507141 0.10020447 5 1 C6.2318573 2.91065979 6.2318573 2.91065979 7.07885742 5.39672852 C7.40091156 6.30633331 7.7229657 7.21593811 8.05477905 8.15310669 C8.36670197 9.09258148 8.67862488 10.03205627 9 11 C9.61073064 12.70707633 10.22181346 14.41402669 10.83325195 16.12084961 C11.47078846 17.96380885 12.10566224 19.80769073 12.73828125 21.65234375 C13.0914592 22.67578384 13.44463715 23.69922394 13.80851746 24.75367737 C14.9789239 28.147459 16.14573673 31.54246431 17.3125 34.9375 C18.14956018 37.36724931 18.98680424 39.79693529 19.82421875 42.2265625 C27.13495117 63.44747304 34.41650731 84.67845704 41.69839191 105.90928078 C48.49797122 125.7333601 55.32850904 145.54648681 62.18151855 165.35217285 C67.72399054 181.37308252 73.21718422 197.40997435 78.67123413 213.46118164 C83.15213626 226.64352159 87.70845559 239.79770197 92.3125 252.9375 C98.84433581 271.57979799 105.22536166 290.27162795 111.54736328 308.98608398 C114.85600286 318.7755312 118.17467132 328.55885349 121.62109375 338.30078125 C122.1527514 339.81157592 122.68433041 341.32239826 123.21582031 342.83325195 C124.16163494 345.5203306 125.12238977 348.20135045 126.09277344 350.87963867 C126.49915039 352.03310791 126.90552734 353.18657715 127.32421875 354.375 C127.67572998 355.35210937 128.02724121 356.32921875 128.3894043 357.3359375 C129.08223301 360.35878712 128.95893975 362.06330342 128 365 C126.77587891 366.921875 126.77587891 366.921875 125.2265625 368.75 C124.65437988 369.43441162 124.08219727 370.11882324 123.49267578 370.82397461 C122.87634277 371.54206299 122.26000977 372.26015137 121.625 373 C120.9944873 373.74967041 120.36397461 374.49934082 119.71435547 375.27172852 C117.81847794 377.52221512 115.91060928 379.76201672 114 382 C112.96811537 383.21691006 111.93681249 384.43431381 110.90625 385.65234375 C109.52715016 387.28197293 108.14748765 388.91106673 106.76416016 390.53710938 C103.46099822 394.42605975 100.27104108 398.3935089 97.10546875 402.39453125 C94.56304042 405.54072734 91.9393248 408.61179848 89.3125 411.6875 C84.36216418 417.5175793 79.91430749 422.95490018 76.6875 429.9375 C73.58855042 436.34004678 69.11345164 441.08562004 63.05859375 444.80859375 C58.95247281 447.75052715 56.5815993 451.33805976 53.7890625 455.48632812 C51.57743631 458.57485706 50.41602589 459.88765339 46.6875 460.89453125 C45.800625 460.92933594 44.91375 460.96414063 44 461 C41 454.375 41 454.375 41 451 C40.030625 450.938125 39.06125 450.87625 38.0625 450.8125 C28.2720547 449.31536953 21.75325047 442.61299683 16 435 C9.82310443 425.41950891 5.96185369 414.62964202 2 404 C1.64808594 405.07636719 1.29617187 406.15273438 0.93359375 407.26171875 C-4.86701903 424.59974835 -12.37417449 441.68708724 -29.625 450.3125 C-32.19316388 451.05591586 -34.33993498 451.15200372 -37 451 C-37.66 453.97 -38.32 456.94 -39 460 C-41.15625 460.8515625 -41.15625 460.8515625 -44 461 C-46.12033375 459.16603316 -47.73907075 457.51080495 -49.5 455.375 C-50.4260055 454.29855103 -51.35308117 453.2230217 -52.28125 452.1484375 C-52.73363037 451.61806885 -53.18601074 451.0877002 -53.65209961 450.54125977 C-56.80164948 446.9398998 -60.20122706 443.78470894 -63.9375 440.8125 C-67.77268108 437.50456603 -70.14551447 433.94181639 -72.578125 429.52734375 C-75.97459141 423.49021802 -80.14582333 418.23979825 -84.5625 412.9375 C-85.18165283 412.18944092 -85.80080566 411.44138184 -86.4387207 410.6706543 C-90.5937965 405.66007454 -94.80118113 400.69593345 -99.02563477 395.74389648 C-102.759118 391.34144324 -106.32823711 386.82089485 -109.84936523 382.24731445 C-112.19760029 379.21641846 -114.60296437 376.2848918 -117.171875 373.4375 C-117.68685547 372.86 -118.20183594 372.2825 -118.73242188 371.6875 C-119.71885817 370.59061331 -120.71958242 369.50635225 -121.73632812 368.4375 C-123.078125 366.9375 -123.078125 366.9375 -125 364 C-124.60519283 359.66624085 -123.36255982 355.7246638 -121.98046875 351.61328125 C-121.77035156 350.98434967 -121.56023437 350.35541809 -121.34375 349.70742798 C-120.62957574 347.57421967 -119.90863361 345.44336496 -119.1875 343.3125 C-118.66353333 341.75408343 -118.13986242 340.1955674 -117.61645508 338.63696289 C-116.09865451 334.12291556 -114.57377104 329.61128388 -113.04785156 325.09997559 C-111.93523667 321.80840345 -110.82483103 318.51609193 -109.71484375 315.22363281 C-101.06333415 289.56597063 -92.37648178 263.92256861 -83.41244507 238.37203979 C-78.35156198 223.94480768 -73.40557662 209.48073505 -68.5 195 C-62.94353159 178.59844424 -57.3120287 162.22632467 -51.58300781 145.88427734 C-46.46761092 131.28555434 -41.46359894 116.65097964 -36.5 102 C-30.51323199 84.33012802 -24.44455869 66.69158493 -18.27075195 49.08618164 C-15.37668268 40.83051937 -12.50113312 32.56995848 -9.69140625 24.28515625 C-9.43296936 23.52493164 -9.17453247 22.76470703 -8.90826416 21.98144531 C-7.7059909 18.44422626 -6.50909997 14.90538568 -5.32275391 11.36279297 C-4.9107373 10.14865723 -4.4987207 8.93452148 -4.07421875 7.68359375 C-3.71932373 6.62712646 -3.36442871 5.57065918 -2.9987793 4.48217773 C-2 2 -2 2 0 0 Z " fill="#BF00CF" transform="translate(254,39)"/>
<path d="M0 0 C0.66 0 1.32 0 2 0 C2.35893845 1.04589294 2.35893845 1.04589294 2.72512817 2.11291504 C13.85240251 34.53567656 24.98167481 66.95775086 36.125 99.375 C36.46090149 100.35218805 36.46090149 100.35218805 36.80358887 101.34911728 C42.53800918 118.03112287 48.27577698 134.71197401 54.02008057 151.39057922 C56.26892438 157.92027834 58.51654598 164.45039139 60.76074219 170.98168945 C65.88361251 185.89062097 65.88361251 185.89062097 71.07485962 200.77583313 C72.25017205 204.1206144 73.4187895 207.46771455 74.58685303 210.81503296 C75.34726618 212.9834147 76.1188684 215.14757789 76.89111328 217.31176758 C77.33167286 218.57351479 77.77165884 219.83546251 78.2109375 221.09765625 C78.58524902 222.15476807 78.95956055 223.21187988 79.34521484 224.30102539 C80.02490243 227.10264591 80.08929882 228.3673502 79 231 C77.38342766 233.10443078 75.75423073 235.08040133 74 237.0625 C72.99142223 238.22720233 71.98362075 239.39257732 70.9765625 240.55859375 C70.47286133 241.13851074 69.96916016 241.71842773 69.45019531 242.31591797 C67.38209404 244.7175615 65.37630204 247.16757082 63.375 249.625 C62.64796875 250.51703125 61.9209375 251.4090625 61.171875 252.328125 C60.45515625 253.20984375 59.7384375 254.0915625 59 255 C54.12683298 260.99504719 49.22280611 266.96234529 44.25 272.875 C43.80221191 273.41044434 43.35442383 273.94588867 42.89306641 274.49755859 C40.07121372 277.83914352 37.12796815 280.95079364 34 284 C34.0314209 282.85168701 34.0314209 282.85168701 34.06347656 281.68017578 C34.14738362 278.16192115 34.19889596 274.64387797 34.25 271.125 C34.28351563 269.92101562 34.31703125 268.71703125 34.3515625 267.4765625 C34.46286367 257.23685503 32.41002327 249.15821144 26 241 C16.42403582 232.18003299 5.46261698 232.32587392 -6.8203125 232.81640625 C-11.16853585 233.18265445 -14.40913033 234.6245016 -18 237 C-18.92619141 237.47373047 -18.92619141 237.47373047 -19.87109375 237.95703125 C-25.97106427 241.45959497 -28.49088433 247.66827188 -31 254 C-33.59146996 263.87226653 -31.91887369 274.97443173 -31 285 C-35.0472273 282.02962425 -38.00964018 278.67167538 -41 274.6875 C-45.00245045 269.46834866 -49.15421119 264.43657874 -53.5 259.5 C-58.27081674 254.07084728 -62.84359773 248.53387196 -67.22924805 242.78833008 C-69.7404307 239.5147319 -72.37861591 236.58135058 -75.3125 233.6875 C-78.01522129 230.61255484 -78.01522129 230.61255484 -77.95170593 228.05648804 C-77.76743546 227.36286163 -77.58316498 226.66923523 -77.39331055 225.95458984 C-77.18475433 225.1609906 -76.97619812 224.36739136 -76.76132202 223.54974365 C-75.40569201 219.00960306 -73.93546699 214.51958078 -72.39453125 210.0390625 C-71.86093491 208.46973213 -71.86093491 208.46973213 -71.31655884 206.86869812 C-70.15336437 203.45246464 -68.98310888 200.03869924 -67.8125 196.625 C-66.99396921 194.22689291 -66.17569432 191.82869846 -65.35766602 189.43041992 C-60.1461366 174.17174526 -54.86366063 158.93840024 -49.52944946 143.722229 C-44.43107162 129.17778419 -39.44528991 114.59715949 -34.5 100 C-28.51383656 82.33183834 -22.43910259 64.69746232 -16.27514648 47.09057617 C-15.6742868 45.37419656 -15.07345632 43.65780673 -14.47265625 41.94140625 C-14.18162521 41.11003647 -13.89059418 40.27866669 -13.59074402 39.42210388 C-10.55065042 30.72945352 -7.55154608 22.02281569 -4.5625 13.3125 C-4.20541962 12.27195465 -4.20541962 12.27195465 -3.84112549 11.21038818 C-2.55932315 7.47408032 -1.27894004 3.73728855 0 0 Z " fill="#161316" transform="translate(255,54)"/>
<path d="M0 0 C4.59306496 1.4859916 7.43569245 3.85014682 11 7 C10.67 7.99 10.34 8.98 10 10 C9.01 10.33 8.02 10.66 7 11 C6.99857498 12.10389572 6.99714996 13.20779144 6.99568176 14.34513855 C6.97901262 24.74809728 6.93624148 35.15066481 6.86790943 45.55341625 C6.83361789 50.90163469 6.80852606 56.24956681 6.80444336 61.59790039 C6.8001651 66.75935454 6.7717413 71.92016258 6.72656822 77.08141518 C6.71357815 79.0505427 6.70929087 81.01974748 6.71384621 82.98891258 C6.71874147 85.74746854 6.69270825 88.50412829 6.65942383 91.26245117 C6.66804947 92.07669052 6.67667511 92.89092987 6.68556213 93.72984314 C6.59950296 97.98415969 6.35766348 99.55032235 3.61235046 103.00190735 C0.88014368 105.09167378 -0.43168193 105.66112009 -3.8125 105.8125 C-4.99779297 105.88404297 -4.99779297 105.88404297 -6.20703125 105.95703125 C-6.79871094 105.97121094 -7.39039063 105.98539062 -8 106 C-8.4125 105.21625 -8.825 104.4325 -9.25 103.625 C-11.12665223 100.81002166 -11.85527455 100.04824182 -15 99 C-17.32495277 98.61250787 -19.65851268 98.27017161 -22 98 C-22.33 97.01 -22.66 96.02 -23 95 C-16.4 95 -9.8 95 -3 95 C-3 84.77 -3 74.54 -3 64 C-18.51 64 -34.02 64 -50 64 C-50.99 68.29 -51.98 72.58 -53 77 C-58.02630684 89.20496784 -66.23159414 99.67425658 -78 106 C-80.33203125 105.71484375 -80.33203125 105.71484375 -82 105 C-79.61065015 102.06451304 -77.31029463 99.29438208 -74.5625 96.6875 C-59.82262455 81.22860624 -58.00253207 60.17142162 -57.68359375 39.8671875 C-57.66281265 38.74933868 -57.64203156 37.63148987 -57.62062073 36.47976685 C-57.55577315 32.94490087 -57.49654465 29.40996718 -57.4375 25.875 C-57.39425301 23.46353495 -57.35063686 21.05207649 -57.30664062 18.640625 C-57.20015918 12.76048611 -57.09827835 6.88028141 -57 1 C-56.47348846 1.21153214 -55.94697693 1.42306427 -55.4045105 1.64100647 C-49.2854633 3.91255618 -43.87558029 4.45412288 -37.3828125 4.43359375 C-36.40384003 4.4388356 -35.42486755 4.44407745 -34.41622925 4.44947815 C-32.36408431 4.45585992 -30.3119026 4.45461166 -28.25976562 4.44604492 C-25.11263056 4.43746628 -21.96727189 4.46645975 -18.8203125 4.49804688 C-16.82031304 4.49965737 -14.82031037 4.49908426 -12.8203125 4.49609375 C-11.87970978 4.50732773 -10.93910706 4.51856171 -9.97000122 4.53013611 C-4.91411812 4.64029136 -4.91411812 4.64029136 -0.88623047 1.96899414 C-0.59377441 1.31922607 -0.30131836 0.66945801 0 0 Z " fill="#BE01CD" transform="translate(281,167)"/>
<path d="M0 0 C0.66 0 1.32 0 2 0 C3.55859375 1.73046875 3.55859375 1.73046875 5.4375 4.1875 C8.63874465 8.29595658 11.92375902 12.29736868 15.3125 16.25 C19.11823167 20.70569933 22.78788213 25.24185666 26.375 29.875 C31.81575769 36.88983197 37.60516948 43.57454418 43.46337891 50.24169922 C45.99796069 53.14193086 48.4995865 56.07030704 51 59 C50.505 59.99 50.505 59.99 50 61 C48.72769531 60.12988281 48.72769531 60.12988281 47.4296875 59.2421875 C34.40438237 50.50369165 21.19121803 43.41822565 5 45 C-2.9983468 47.11147175 -9.31374157 50.84667773 -13.625 58.0625 C-19.31944107 69.19338157 -21.95890578 79.90000389 -18.9375 92.25 C-16.08161977 100.56408123 -9.75267095 106.20527159 -2 110 C11.12870102 115.65756335 23.90264622 116.45000057 38 117 C35.04271843 120.0401476 32.10081302 122.79775567 28.6875 125.3125 C16.91619636 134.38987346 9.44061698 144.74037902 5 159 C1.08907439 155.18287888 -2.55107909 151.19551805 -6.125 147.0625 C-6.69412109 146.40572266 -7.26324219 145.74894531 -7.84960938 145.07226562 C-11.98995878 140.2580132 -15.95456661 135.33310202 -19.80810547 130.28710938 C-22.28544067 127.07356354 -24.8566157 124.01779561 -27.609375 121.03515625 C-28.21458984 120.37193359 -28.81980469 119.70871094 -29.44335938 119.02539062 C-30.62040572 117.74654568 -31.81383958 116.48253299 -33.02539062 115.23632812 C-33.55841797 114.65431641 -34.09144531 114.07230469 -34.640625 113.47265625 C-35.12047852 112.97000244 -35.60033203 112.46734863 -36.09472656 111.94946289 C-38.67584873 106.3911402 -34.70564958 98.72073071 -32.78125 93.28515625 C-32.45113419 92.33674866 -32.12101837 91.38834106 -31.78089905 90.41119385 C-30.69352043 87.29273713 -29.5968915 84.17762203 -28.5 81.0625 C-27.74033925 78.89038059 -26.98115002 76.71809623 -26.22241211 74.5456543 C-19.986909 56.71605463 -13.68513397 38.90933504 -7.359375 21.11157227 C-6.84122475 19.65337067 -6.84122475 19.65337067 -6.31260681 18.16571045 C-5.67041471 16.35914862 -5.02768422 14.55277805 -4.3842926 12.74664307 C-2.8784149 8.51156921 -1.40205958 4.27094898 0 0 Z " fill="#171317" transform="translate(174,292)"/>
<path d="M0 0 C0.66 0 1.32 0 2 0 C9.08028083 19.58211004 15.92531884 39.24306781 22.71801758 58.92651367 C25.86716105 68.04196175 29.02168886 77.15185403 32.3515625 86.203125 C32.59585999 86.87037598 32.84015747 87.53762695 33.09185791 88.22509766 C34.17771453 91.18821221 35.27538474 94.14571283 36.39648438 97.09570312 C36.76322266 98.09021484 37.12996094 99.08472656 37.5078125 100.109375 C37.82379395 100.94436523 38.13977539 101.77935547 38.46533203 102.63964844 C39.10869413 105.47984239 38.86143344 107.22904633 38 110 C36.22694557 112.33145145 34.45986603 114.46458121 32.5 116.625 C31.39611095 117.8753984 30.29325505 119.12670961 29.19140625 120.37890625 C28.64629395 120.9939502 28.10118164 121.60899414 27.53955078 122.24267578 C25.44449301 124.63408489 23.43716056 127.09105019 21.4375 129.5625 C17.68012449 134.19273225 13.83678212 138.74212357 9.96484375 143.27636719 C6.60095628 147.23514669 3.41543157 151.29976678 0.33984375 155.48828125 C-0.10230469 155.98714844 -0.54445313 156.48601562 -1 157 C-1.66 157 -2.32 157 -3 157 C-3.20753906 156.32195312 -3.41507812 155.64390625 -3.62890625 154.9453125 C-6.03701647 147.67060296 -9.27820973 142.0104665 -14 136 C-14.51175781 135.32324219 -15.02351563 134.64648438 -15.55078125 133.94921875 C-20.00797551 128.43026109 -25.44424976 124.38861175 -31.109375 120.19921875 C-33.29119366 118.53926753 -35.10996717 116.95193805 -37 115 C-36.351521 114.9906543 -35.70304199 114.98130859 -35.03491211 114.97167969 C-10.86810218 114.55883992 -10.86810218 114.55883992 11 105 C11.928125 104.38125 12.85625 103.7625 13.8125 103.125 C16.6898323 100.32987719 18.15131722 97.5698702 20 94 C20.36222656 93.42765625 20.72445312 92.8553125 21.09765625 92.265625 C22.40983517 88.97097663 22.29753392 85.74172898 22.25 82.25 C22.24178223 81.52844727 22.23356445 80.80689453 22.22509766 80.06347656 C22.01022373 69.85580995 19.05930796 59.92960176 12.296875 52.00390625 C5.64294209 45.99438577 -2.13314212 43.66541882 -10.98046875 43.79296875 C-23.904208 44.67907248 -36.57958728 51.3187614 -46.23046875 59.71484375 C-48 61 -48 61 -51 61 C-50.23816406 60.11699219 -49.47632813 59.23398437 -48.69140625 58.32421875 C-43.13821319 51.8745623 -37.64567103 45.38959475 -32.28125 38.78125 C-29.70157112 35.63616205 -27.07368017 32.53520324 -24.4375 29.4375 C-21.23256144 25.6691525 -18.07312111 21.87753727 -15 18 C-11.75432116 13.91933325 -8.46200219 9.88114065 -5.125 5.875 C-4.40957031 5.00294922 -4.40957031 5.00294922 -3.6796875 4.11328125 C-2.49762725 2.70364044 -1.25357928 1.34643701 0 0 Z " fill="#171318" transform="translate(336,293)"/>
<path d="M0 0 C1.89331055 0.56054688 1.89331055 0.56054688 4 2 C4.80908775 4.4367274 5.31258046 6.5222831 5.70703125 9.03125 C5.8890081 10.09418274 5.8890081 10.09418274 6.07466125 11.17858887 C7.3566274 19.25578891 7.56124479 27.33791847 7.6875 35.5 C7.72080216 37.01695397 7.75530278 38.53388212 7.79101562 40.05078125 C7.87440639 43.70032971 7.94188433 47.34995082 8 51 C12.38948241 50.45862144 16.37765963 49.69399014 20.546875 48.22265625 C21.5575 47.87396484 22.568125 47.52527344 23.609375 47.16601562 C25.68799584 46.43565445 27.76612909 45.70390394 29.84375 44.97070312 C47.45157417 38.90404797 47.45157417 38.90404797 56 40 C56.66 40.99 57.32 41.98 58 43 C46.4478569 54.5521431 28.13549565 58.11649894 13 63 C12.75524603 68.06975189 14.02638617 69.77789334 17.3125 73.6875 C21.62620199 79.00498986 25.37695201 84.52728819 28.9375 90.375 C29.39745361 91.12354248 29.85740723 91.87208496 30.33129883 92.64331055 C37 103.71180163 37 103.71180163 37 110 C29.60363769 109.26141888 26.66575221 105.46287916 22 100 C15.15360011 91.37888257 8.9953962 82.22500791 3 73 C0.55268704 73.37924858 -0.70509385 73.68720395 -2.42871094 75.51538086 C-3.07501465 76.48036499 -3.07501465 76.48036499 -3.734375 77.46484375 C-4.22188232 78.17769531 -4.70938965 78.89054687 -5.21166992 79.625 C-5.71931885 80.388125 -6.22696777 81.15125 -6.75 81.9375 C-7.82206553 83.5001773 -8.89627964 85.0613828 -9.97265625 86.62109375 C-10.49230957 87.3776123 -11.01196289 88.13413086 -11.54736328 88.91357422 C-16.76464731 96.40717243 -22.75611698 104.36284291 -30 110 C-31.32 110 -32.64 110 -34 110 C-35.06903031 96.16549016 -20.85969989 81.43732141 -13 71 C-12.42548096 70.34410889 -11.85096191 69.68821777 -11.2590332 69.01245117 C-9.81873616 67.09631263 -9.81873616 67.09631263 -9.96801758 64.88208008 C-11.53685488 62.0209098 -13.43439266 61.81142308 -16.51171875 60.88671875 C-17.65640625 60.52916504 -18.80109375 60.17161133 -19.98046875 59.80322266 C-21.81544922 59.25093994 -21.81544922 59.25093994 -23.6875 58.6875 C-50.08661302 50.34092509 -50.08661302 50.34092509 -55 44 C-55 43.01 -55 42.02 -55 41 C-40.67175151 39.12430202 -25.46753177 44.38282852 -12.45727539 50.12158203 C-9.81218806 51.06713834 -7.78673646 51.15924208 -5 51 C-4.98541748 49.8761792 -4.97083496 48.7523584 -4.95581055 47.59448242 C-4.89730637 43.37656753 -4.82008248 39.1591578 -4.73754883 34.94165039 C-4.70454235 33.1253283 -4.67643704 31.30890961 -4.65356445 29.49243164 C-4.32819468 4.32819468 -4.32819468 4.32819468 0 0 Z " fill="#181319" transform="translate(255,334)"/>
<path d="M0 0 C8.79339743 6.01854279 16.52711923 13.41146251 23.17822266 21.7253418 C21.57405599 21.2878418 19.96988932 20.8503418 18.36572266 20.4128418 C16.84398437 20.00678711 16.84398437 20.00678711 15.29150391 19.5925293 C13.3797682 19.06002575 11.47743826 18.48998002 9.59619141 17.8581543 C3.77160254 15.97925466 -1.67880689 15.41415 -7.75927734 15.3503418 C-8.49355957 15.33656494 -9.2278418 15.32278809 -9.984375 15.30859375 C-13.13673467 15.33588848 -15.47586304 15.54610026 -18.29443359 17.0065918 C-20.20529288 18.83203702 -20.20529288 18.83203702 -20.32177734 22.6003418 C-20.05854778 26.84298299 -19.0439472 28.81004526 -15.82177734 31.7253418 C-7.30232269 38.21982971 3.17046444 41.27024572 13.17822266 44.7253418 C9.61054536 48.29301909 5.65249062 47.91260648 0.90478516 47.96362305 C0.18519623 47.97169479 -0.5343927 47.97976654 -1.27578735 47.98808289 C-2.80395106 48.00191377 -4.33214552 48.01264039 -5.86035156 48.02050781 C-7.4001593 48.03193167 -8.93993052 48.05222797 -10.47949219 48.08203125 C-23.81291437 48.33982803 -36.64884147 47.39204152 -46.82177734 37.7253418 C-51.9081048 32.80855859 -53.79996008 27.60224636 -54.19677734 20.6003418 C-53.93633991 11.07809806 -50.58364424 1.52068328 -43.82177734 -5.2746582 C-29.89350161 -16.13871328 -13.11513783 -8.57052235 0 0 Z " fill="#161317" transform="translate(213.82177734375,353.274658203125)"/>
<path d="M0 0 C6.62472442 5.84099586 10.55498916 13.84576055 11.30859375 22.57421875 C11.62733404 30.00908424 11.83105478 36.15279801 6.875 42.17578125 C-5.86263189 54.56843561 -21.78150083 54.37651798 -38.47729492 54.29248047 C-44.42135955 54.20778871 -50.11921423 53.92621444 -56 53 C-56 52.34 -56 51.68 -56 51 C-55.47680176 50.81937012 -54.95360352 50.63874023 -54.41455078 50.45263672 C-35.85521583 44.71413308 -35.85521583 44.71413308 -22 32 C-21.58253722 28.45156634 -21.87223625 26.38329125 -23 23 C-35.2079779 17.94326406 -50.65051012 23.43966335 -62.20678711 27.56274414 C-64 28 -64 28 -66 27 C-51.24977675 11.11320133 -22.89840132 -15.16124618 0 0 Z " fill="#161316" transform="translate(341,347)"/>
<path d="M0 0 C0.74701172 -0.01224609 1.49402344 -0.02449219 2.26367188 -0.03710938 C9.50958643 -0.05619431 14.91147295 1.64041488 20.6875 6.1875 C27.9173151 14.19407209 28.37979766 23.56209111 28.12890625 33.8671875 C27.26957881 48.42995911 21.33536883 62.38346861 14.6875 75.1875 C14.3575 75.1875 14.0275 75.1875 13.6875 75.1875 C13.64262451 74.48254395 13.59774902 73.77758789 13.55151367 73.05126953 C13.33796121 69.80410194 13.10659156 66.55842894 12.875 63.3125 C12.80474609 62.20390625 12.73449219 61.0953125 12.66210938 59.953125 C11.74266117 46.33539741 11.74266117 46.33539741 4.6875 35.1875 C1.79677047 33.85841833 1.79677047 33.85841833 -1.3125 34.1875 C-6.42723416 37.75591918 -7.78657848 42.42405317 -9.3125 48.1875 C-9.48289795 48.77619873 -9.6532959 49.36489746 -9.82885742 49.97143555 C-10.40556542 52.61392848 -10.52826036 55.1250639 -10.62890625 57.828125 C-10.67080078 58.89804687 -10.71269531 59.96796875 -10.75585938 61.0703125 C-10.81483398 62.73707031 -10.81483398 62.73707031 -10.875 64.4375 C-10.91818359 65.56414062 -10.96136719 66.69078125 -11.00585938 67.8515625 C-11.11182015 70.63008954 -11.21389142 73.40870391 -11.3125 76.1875 C-14.16384734 72.54983265 -16.00443929 68.73075405 -17.8125 64.5 C-18.12147217 63.78247559 -18.43044434 63.06495117 -18.7487793 62.32568359 C-20.86638683 57.35478974 -22.8971273 52.41042461 -24.3125 47.1875 C-24.61800781 46.08148438 -24.61800781 46.08148438 -24.9296875 44.953125 C-27.66620704 33.48223486 -27.97295896 20.51901628 -22.1875 10 C-16.87369867 1.96603847 -9.15032386 0.00777428 0 0 Z " fill="#161316" transform="translate(255.3125,292.8125)"/>
<path d="M0 0 C10.19028581 3.09482754 18.90523298 9.21273618 27 16 C27.76183594 16.61617188 28.52367187 17.23234375 29.30859375 17.8671875 C37.65146511 24.87351117 45.53474529 34.38817277 47.4140625 45.43359375 C47.8686435 53.10165751 45.04119091 58.91542179 40.53125 64.97265625 C35.23755825 70.87616053 27.88649735 75.14876177 20.0625 76.51171875 C12.52262203 76.81540828 7.42856672 74.99242395 1.7890625 70.0703125 C-10.74067918 57.36951632 -18.75482533 36.8943611 -19.046875 19.15234375 C-19.03140625 18.44207031 -19.0159375 17.73179687 -19 17 C-16.18784819 19.65127356 -13.83858991 22.45765416 -11.54931641 25.5690918 C-6.31064825 32.68875826 -0.45511268 40.60450743 8 44 C11.96986829 43.93035319 14.14468729 43.85531271 17 41 C19.31833961 34.04498116 17.06907456 28.65260522 14.0625 22.3125 C10.6699393 15.64098311 6.41157626 9.65215875 1.94140625 3.66796875 C0 1 0 1 0 0 Z " fill="#161316" transform="translate(280,407)"/>
<path d="M0 0 C0.66 0.33 1.32 0.66 2 1 C1.03900391 2.38058594 1.03900391 2.38058594 0.05859375 3.7890625 C-11.61378173 19.54231061 -11.61378173 19.54231061 -15.484375 37.99609375 C-15.05097031 40.20656765 -15.05097031 40.20656765 -13.4375 42.6875 C-9.86631975 44.61044321 -7.86485482 44.06616685 -4 43 C7.05957978 37.22978446 14.16259325 26.03485792 21 16 C24.60202531 27.84347243 16.36281691 45.44043313 11 56 C6.29500303 64.34512164 -0.56807452 73.01009407 -10 76 C-19.23565838 77.34775353 -25.86468556 74.73396784 -33.26171875 69.35546875 C-37.7175082 65.70682785 -40.4712397 62.158671 -43 57 C-43.33 56.34 -43.66 55.68 -44 55 C-45.00080873 44.63096528 -43.01982679 36.78130205 -36.8125 28.4375 C-28.0643455 17.88387532 -18.25439949 10.38770791 -6.5 3.5 C-5.58214722 2.95557251 -5.58214722 2.95557251 -4.64575195 2.40014648 C-3.13232971 1.5354248 -1.56901411 0.75920038 0 0 Z " fill="#161316" transform="translate(230,407)"/>
<path d="M0 0 C15.51 0 31.02 0 47 0 C47 7.59 47 15.18 47 23 C31.49 23 15.98 23 0 23 C0 15.41 0 7.82 0 0 Z " fill="#1A131A" transform="translate(232,176)"/>
<path d="M0 0 C15.18 0 30.36 0 46 0 C46 7.59 46 15.18 46 23 C30.82 23 15.64 23 0 23 C0 15.41 0 7.82 0 0 Z " fill="#151315" transform="translate(232,203)"/>
<path d="M0 0 C0.33 0.66 0.66 1.32 1 2 C-3.62 2.33 -8.24 2.66 -13 3 C-13 3.33 -13 3.66 -13 4 C-14.98 4 -16.96 4 -19 4 C-19.33 3.01 -19.66 2.02 -20 1 C-10.1 0.505 -10.1 0.505 0 0 Z " fill="#B005BF" transform="translate(278,261)"/>
</svg>
